<svg xmlns="http://www.w3.org/2000/svg" width="33.384" height="33.157" viewBox="0 0 33.384 33.157">
  <path id="Path_8" data-name="Path 8" d="M-50.308-659.539q0-6.657,0-13.315a1.736,1.736,0,0,0-2.224-1.9c-.806.1-1.619.163-2.429.234q-7.585.672-15.169,1.343c-1.543.138-1.987.642-1.987,2.2q0,7.753,0,15.507v1.06c-.412-.089-.709-.146-1-.214a9.091,9.091,0,0,0-10.21,5.665,5.3,5.3,0,0,0,3.9,7.149,8.926,8.926,0,0,0,3.16.076c3.557-.5,7.542-3.767,7.455-8.443-.119-6.347-.026-12.7-.036-19.047,0-.533.029-.9.712-.959,3.969-.323,7.935-.683,11.9-1.025.856-.074,1.712-.13,2.617-.2v15.293c-.361-.076-.659-.131-.953-.2A9.089,9.089,0,0,0-64.79-650.64,5.31,5.31,0,0,0-62-643.857a7.191,7.191,0,0,0,4.278.472c3.554-.6,7.595-3.786,7.433-8.484C-50.381-654.422-50.307-656.981-50.308-659.539ZM-72.28-648.512a5.919,5.919,0,0,1-5.425,3.694c-2.42-.009-3.428-1.745-2.239-3.856a5.967,5.967,0,0,1,6.081-2.813A2.139,2.139,0,0,1-72.28-648.512Zm18.572-1.747a6.183,6.183,0,0,1-5.41,3.856,10.6,10.6,0,0,1-1.6-.437A1.973,1.973,0,0,1-61.84-649.2a5.8,5.8,0,0,1,6.544-3.965A2.139,2.139,0,0,1-53.708-650.258Z" transform="translate(83.671 674.785)" fill="#fff"/>
</svg>
